<svg viewBox="0 0 24 24" fill="none" xmlns="http://www.w3.org/2000/svg" aria-hidden="true" focusable="false"><path d="M19.2 10.8s-2.4-1.5-2.4-3.2a1.3 1.3 0 0 1 2.4-.6 1.3 1.3 0 0 1 2.4.6c0 1.7-2.4 3.2-2.4 3.2Z" fill="#71805a"/><path d="M5.3 14c.4-2.9 2.3-4.4 6.7-4.4s6.3 1.5 6.7 4.4l.4 2.7c.2 1.4-.8 2.4-2.2 2.4H7.1c-1.4 0-2.4-1-2.2-2.4l.4-2.7Z" stroke="#71805a" stroke-width="1.7" stroke-linecap="round" stroke-linejoin="round" fill="none"/><path d="M12 9.8c-2.8-.2-3.9-1.8-3.8-3.2 2.4.2 3.8 1.2 3.8 3.2Zm0 0c.1-2.3 1.5-3.7 3.5-3.9-.1 2-1.3 3.3-3.5 3.9Z" fill="#71805a"/><path d="M8.8 14.1q1.1 1.1 2.2 0m2 0q1.1 1.1 2.2 0" stroke="#71805a" stroke-width="1.7" stroke-linecap="round"/></svg>